<?xml version="1.0" encoding="UTF-8" standalone="no"?>
<!-- Generator: Adobe Illustrator 16.0.0, SVG Export Plug-In . SVG Version: 6.00 Build 0)  -->

<svg
   xmlns:dc="http://purl.org/dc/elements/1.1/"
   xmlns:cc="http://creativecommons.org/ns#"
   xmlns:rdf="http://www.w3.org/1999/02/22-rdf-syntax-ns#"
   xmlns:svg="http://www.w3.org/2000/svg"
   xmlns="http://www.w3.org/2000/svg"
   xmlns:sodipodi="http://sodipodi.sourceforge.net/DTD/sodipodi-0.dtd"
   xmlns:inkscape="http://www.inkscape.org/namespaces/inkscape"
   version="1.1"
   id="Layer_1"
   x="0px"
   y="0px"
   width="720"
   height="280"
   viewBox="0 0 720 280"
   enable-background="new 0 0 1280 800"
   xml:space="preserve"
   sodipodi:docname="Logo.svg"
   inkscape:version="0.92.3 (2405546, 2018-03-11)"><metadata
   id="metadata115"><rdf:RDF><cc:Work
       rdf:about=""><dc:format>image/svg+xml</dc:format><dc:type
         rdf:resource="http://purl.org/dc/dcmitype/StillImage" /><dc:title></dc:title></cc:Work></rdf:RDF></metadata><defs
   id="defs113" /><sodipodi:namedview
   pagecolor="#ffffff"
   bordercolor="#666666"
   borderopacity="1"
   objecttolerance="10"
   gridtolerance="10"
   guidetolerance="10"
   inkscape:pageopacity="0"
   inkscape:pageshadow="2"
   inkscape:window-width="1600"
   inkscape:window-height="837"
   id="namedview111"
   showgrid="false"
   inkscape:zoom="0.99148492"
   inkscape:cx="432.05047"
   inkscape:cy="115.07886"
   inkscape:window-x="-8"
   inkscape:window-y="-8"
   inkscape:window-maximized="1"
   inkscape:current-layer="Layer_1" />







































<g
   id="g4680"
   transform="translate(10.705065,10.985577)"><path
     style="fill:#e6001f"
     inkscape:connector-curvature="0"
     id="path2"
     d="m 236.95787,213.617 c -1.407,0.789 -3.17,0.104 -3.709,-1.417 -4.151,-11.726 -3.323,-20.839 -1.968,-29.86 1.012,-6.746 1.948,-11.249 3.124,-14.932 0.211,-0.67 0.685,-1.224 1.314,-1.537 l 26.319,-13.12 c 1.087,-0.541 2.291,0.48 1.928,1.638 -0.913,2.91 -2.002,7.018 -2.693,11.775 -1.682,11.586 -0.183,21.828 4.336,29.777 0.382,0.671 0.165,1.525 -0.509,1.902 z" /><path
     style="fill:#072f7f"
     inkscape:connector-curvature="0"
     id="path4"
     d="m 106.28987,244.554 c -0.417,-0.13 -0.773,-0.412 -0.991,-0.788 -3.349,-5.843 -5.487005,-12.168 -6.360005,-18.828 -0.846,-6.433 -0.532,-13.224 0.931,-20.188 0.842005,-4.009 2.047005,-8.006 3.595005,-11.914 0.324,-0.821 1.229,-1.252 2.078,-1.009 l 42.896,12.368 c 1.094,0.317 1.591,1.584 0.99,2.553 -2.02,3.254 -4.629,8.493 -5.721,15.104 -1.313,7.957 -0.57,20.873 5.108,33.546 0.485,1.087 -0.522,2.238 -1.66,1.886 z" /><path
     style="fill:#e6001f"
     inkscape:connector-curvature="0"
     id="path6"
     d="m 227.28287,163.905 c -0.43,0.732 -1.553,0.472 -1.604,-0.378 -0.382,-6.429 -0.32,-14.052 0.186,-22.714 0.1,-1.717 0.22,-3.501 0.356,-5.305 0.352,-4.622 0.75,-8.567 1.042,-11.201 0.013,-0.125 0.054,-0.241 0.12,-0.348 l 3.764,-6.166 c -0.816,11.212 -1.363,26.994 0.705,38.32 z" /><path
     style="fill:#e6001f"
     inkscape:connector-curvature="0"
     id="path8"
     d="m 237.86887,145.852 c -0.43,0.73 -1.551,0.47 -1.604,-0.377 -0.39,-6.456 -0.331,-14.122 0.178,-22.842 0.1,-1.725 0.221,-3.509 0.356,-5.303 0.2,-2.632 0.435,-5.298 0.7,-7.937 0.027,-0.281 0.19,-0.529 0.434,-0.667 l 4.988,-2.811 c -0.561,8.824 0.156,17.662 2.136,26.28 0.147,0.642 0.049,1.313 -0.283,1.881 z" /><path
     style="fill:#e6001f"
     inkscape:connector-curvature="0"
     id="path10"
     d="m 213.84187,186.828 c -0.402,0.686 -1.439,0.506 -1.594,-0.274 -3.073,-15.631 -0.181,-33.181 0.846,-38.488 0.067,-0.348 0.128,-0.647 0.179,-0.899 0.02,-0.097 0.056,-0.187 0.108,-0.27 l 7.261,-11.896 c -0.871,11.443 -1.481,27.599 0.614,39.185 z" /><path
     style="fill:#072f7f"
     inkscape:connector-curvature="0"
     id="path12"
     d="m 26.361865,172.987 c -0.818,-0.084 -1.527,-0.622 -1.808,-1.394 -4.607,-12.732 -4.891,-26.765 -0.829,-39.666 0.002,-0.007 0.005,-0.014 0.006,-0.018 0.37,-1.124 1.432,-1.876 2.612,-1.911 l 0.417,-0.015 56.914,5.705 c 1.074,0.107 1.787,1.161 1.479,2.196 -0.819,2.763 -1.669,6.231 -2.28,10.226 -1.117,7.321 -1.549,17.796 1.954,28.412 0.393,1.191 -0.555,2.394 -1.802,2.268 z" /><path
     style="fill:#072f7f"
     inkscape:connector-curvature="0"
     id="path14"
     d="m 93.128865,179.824 c -0.611,-0.063 -1.153,-0.443 -1.402,-1.007 -4.795,-10.808 -4.472,-22.083 -3.305,-29.779 0.703,-4.64 1.781,-8.55 2.656,-11.24 0.251,-0.772 1.003,-1.265 1.811,-1.185 l 6.861,0.688 44.668005,14.151 c 0.832,0.263 1.324,1.102 1.171,1.957 -0.111,0.624 -0.214,1.247 -0.309,1.866 -1.082,7.098 -1.537,17.262 1.703,27.639 0.37,1.185 -0.576,2.367 -1.81,2.239 z" /><path
     style="fill:#e6001f"
     inkscape:connector-curvature="0"
     id="path16"
     d="m 158.02687,257.853 c -0.697,0.389 -1.585,0.11 -1.919,-0.614 -2.694,-5.834 -4.69,-11.943 -5.818,-17.824 -1.187,-6.189 -1.405,-11.971 -0.628,-16.711 1.149,-7.021 4.7,-13.235 6.708,-16.306 0.703,-1.077 1.681,-1.941 2.833,-2.514 l 19.878,-9.887 9.251,0.947 c -0.561,2.294 -1.003,4.705 -1.32,7.191 -1.899,14.884 -0.415,26.642 4.408,35.018 0.476,0.828 0.182,1.883 -0.651,2.351 z" /><path
     style="fill:#072f7f"
     inkscape:connector-curvature="0"
     id="path18"
     d="m 58.724865,229.355 c -0.427,-0.137 -0.788,-0.432 -1,-0.825 -2.951,-5.488 -4.854,-11.393 -5.666,-17.569 -0.844,-6.436 -0.53,-13.228 0.931,-20.191 0.658,-3.128 1.551,-6.289 2.658,-9.409 l 21.529,2.204 19.442,5.671 c 0.972,0.283 1.479,1.335 1.118,2.282 -1.491,3.899 -2.675,7.902 -3.528,11.94 -1.609,7.618 -1.957,15.079 -1.034,22.175 0.575,4.405 1.648,8.692 3.208,12.811 0.514,1.359 -0.741,2.718 -2.125,2.275 z" /><path
     style="fill:#072f7f"
     inkscape:connector-curvature="0"
     id="path20"
     d="m 20.151865,216.619 -0.099,-0.024 c -0.064,-0.016 -0.127,-0.033 -0.193,-0.053 -0.741,-0.218 -1.497,-0.467 -2.25,-0.735 l -0.816,-0.26 c -0.227,-0.072 -0.451,-0.172 -0.668,-0.292 l -0.075,-0.04 -0.077,-0.034 C 6.3768653,211.238 1.3608653,204.252 0.18486532,193.207 c -0.956,-8.987 1.87199998,-19.426 6.72099998,-24.817 1.377,-1.53 3.5819997,-3.358 6.2559997,-3.358 0.43,0 0.866,0.048 1.298,0.142 l 0.126,0.026 0.13,0.005 c 0.069,0.004 0.13,0.012 0.186,0.027 l 2.411,0.714 c 0.598,2.542 1.344,5.058 2.226,7.489 0.976,2.693 3.429,4.577 6.28,4.869 l 21.786,2.231 c 1.074,0.109 1.788,1.171 1.473,2.203 -0.685,2.239 -1.269,4.493 -1.743,6.739 -1.61,7.618 -1.958,15.079 -1.034,22.177 0.519,3.991 1.453,7.891 2.786,11.656 0.474,1.342 -0.821,2.636 -2.171,2.188 z" /><path
     style="fill:#072f7f"
     inkscape:connector-curvature="0"
     id="path22"
     d="m 155.19287,186.179 c -0.624,-0.064 -1.172,-0.459 -1.416,-1.037 -4.425,-10.574 -4.076,-21.487 -2.946,-28.942 0.128,-0.851 0.275,-1.715 0.441,-2.579 l 0.482,0.154 c 1.816,0.575 3.766,0.603 5.659,0.059 0.726,-0.206 1.417,-0.525 2.075,-0.897 l 14.533,-8.19 31.526,3.16 c 0.992,0.099 1.692,1.012 1.526,1.992 -0.507,3.016 -1.091,7.184 -1.459,12.048 -0.553,7.315 -0.672,17.57 1.487,27.282 0.255,1.144 -0.686,2.196 -1.852,2.078 z" /><path
     style="fill:#c0c0c0"
     inkscape:connector-curvature="0"
     id="path24"
     d="m 30.524865,122.205 4.713,-4.842 c 0.226,-0.234 0.566,-0.319 0.876,-0.221 l 29.792,9.438 c 0.986,0.313 0.685,1.779 -0.346,1.677 l -34.075,-3.415 c -1.296,-0.13 -1.869,-1.702 -0.96,-2.637" /><path
     style="fill:#c0c0c0"
     inkscape:connector-curvature="0"
     id="path26"
     d="m 216.23087,120.958 7.722,-4.353 c 0.563,-0.316 1.177,0.321 0.842,0.871 l -3,4.914 c -0.128,0.208 -0.366,0.322 -0.609,0.295 l -4.723,-0.561 c -0.6,-0.071 -0.759,-0.87 -0.232,-1.166" /><path
     style="fill:#c0c0c0"
     inkscape:connector-curvature="0"
     id="path28"
     d="m 184.85287,138.642 20.682,-11.656 c 0.506,-0.285 1.093,-0.402 1.67,-0.333 l 9.845,1.169 c 0.624,0.074 0.96,0.768 0.634,1.303 l -7.375,12.078 c -0.55,0.901 -1.568,1.407 -2.617,1.302 l -22.503,-2.256 c -0.836,-0.084 -1.069,-1.195 -0.336,-1.607" /><path
     style="fill:#e6001f"
     inkscape:connector-curvature="0"
     id="path30"
     d="m 198.78687,124.326 c -0.841,0.471 -1.909,0.168 -2.362,-0.681 -3.982,-7.463 -5.186,-18.372 -3.477,-31.821 0.885,-6.952 2.772,-12.429 4.174,-15.756 0.573,-1.358 1.603,-2.471 2.921,-3.126 l 24.387,-12.153 c 1.314,-0.654 2.802,0.531 2.439,1.953 -0.746,2.913 -1.366,6.185 -1.795,9.55 -1.739,13.628 -0.584,24.639 3.532,33.539 0.373,0.805 0.04,1.762 -0.733,2.196 z" /><path
     style="fill:#e6001f"
     inkscape:connector-curvature="0"
     id="path32"
     d="m 236.07587,103.428 c -0.922,0.518 -2.091,0.083 -2.462,-0.908 -4.563,-12.214 -3.726,-21.588 -2.333,-30.864 0.957,-6.379 1.847,-10.752 2.934,-14.326 0.321,-1.06 1.078,-1.932 2.069,-2.425 l 25.754,-12.836 c 1.085,-0.542 2.29,0.479 1.927,1.638 -0.914,2.91 -2.002,7.016 -2.693,11.775 -1.681,11.584 -0.183,21.828 4.335,29.777 0.383,0.671 0.167,1.524 -0.508,1.903 z" /><path
     style="fill:#e6001f"
     inkscape:connector-curvature="0"
     id="path34"
     d="m 158.35587,146.987 c -0.874,0.489 -1.988,0.14 -2.404,-0.772 -2.615,-5.729 -4.557,-11.715 -5.662,-17.481 -1.187,-6.191 -1.405,-11.969 -0.629,-16.713 1.148,-7.019 4.7,-13.234 6.706,-16.304 0.705,-1.077 1.683,-1.941 2.833,-2.515 l 27.433,-13.64 c 1.354,-0.673 2.843,0.595 2.412,2.042 -0.883,2.971 -1.585,6.334 -2.034,9.852 -1.899,14.882 -0.415,26.639 4.408,35.018 0.476,0.827 0.183,1.88 -0.651,2.348 z" /><path
     style="fill:#ffae00"
     inkscape:connector-curvature="0"
     id="path36"
     d="m 187.54187,37.955 28.888,-13.632 c 0.557,-0.261 1.188,-0.317 1.783,-0.155 l 39.944,10.903 c 1.219,0.332 1.382,1.996 0.249,2.559 l -27.857,13.853 c -0.386,0.191 -0.831,0.231 -1.244,0.111 l -41.635,-12.034 c -0.762,-0.22 -0.846,-1.267 -0.128,-1.605" /><path
     style="fill:#ffae00"
     inkscape:connector-curvature="0"
     id="path38"
     d="m 151.21787,55.535 26.55,-12.849 c 0.192,-0.095 0.411,-0.112 0.616,-0.053 l 42.026,12.221 c 0.753,0.221 0.845,1.25 0.144,1.598 l -25.465,12.663 c -0.58,0.289 -1.248,0.348 -1.87,0.167 l -41.866,-12.144 c -0.757,-0.22 -0.846,-1.26 -0.135,-1.603" /><path
     style="fill:#ffae00"
     inkscape:connector-curvature="0"
     id="path40"
     d="m 111.55287,75.403 29.909,-15.06 c 0.193,-0.1 0.417,-0.119 0.625,-0.058 l 42.604,12.332 c 0.753,0.218 0.847,1.247 0.145,1.597 l -29.618,14.73 c -0.582,0.289 -1.25,0.348 -1.872,0.167 l -41.646,-12.112 c -0.75,-0.219 -0.844,-1.245 -0.147,-1.596" /><path
     style="fill:#ffae00"
     inkscape:connector-curvature="0"
     id="path42"
     d="m 17.462865,47.522 31.767,-13.747 c 0.553,-0.241 1.172,-0.277 1.751,-0.109 l 33.669,9.843 c 0.753,0.221 0.841,1.252 0.138,1.599 l -29.628,14.577 c -0.581,0.287 -1.248,0.343 -1.87,0.162 l -35.716,-10.521 c -0.863,-0.255 -0.937,-1.446 -0.111,-1.804" /><path
     style="fill:#ffae00"
     inkscape:connector-curvature="0"
     id="path44"
     d="m 99.463865,13.726 c -0.776,-0.221 -0.847,-1.295 -0.105,-1.616 L 126.79987,0.205 c 0.313,-0.136 0.647,-0.205 0.988,-0.205 0.217,0 0.434,0.029 0.644,0.086 l 30.935,8.204 c 0.78,0.207 0.872,1.276 0.138,1.613 l -27.288,12.548 c -0.562,0.256 -1.195,0.306 -1.79,0.136 z" /><path
     style="fill:#ffae00"
     inkscape:connector-curvature="0"
     id="path46"
     d="m 60.336865,28.968 28.674,-12.408 c 0.56,-0.241 1.187,-0.279 1.77,-0.103 l 30.995005,9.323 c 0.755,0.226 0.834,1.263 0.12,1.601 L 95.125865,40.049 c -0.572,0.271 -1.223,0.322 -1.829,0.146 l -32.86,-9.609 c -0.773,-0.227 -0.841,-1.298 -0.1,-1.618" /><path
     style="fill:#ffae00"
     inkscape:connector-curvature="0"
     id="path48"
     d="m 64.170865,61.481 29.656,-14.59 c 0.58,-0.286 1.244,-0.343 1.864,-0.162 l 36.102005,10.559 c 0.75,0.218 0.844,1.242 0.146,1.595 l -29.298,14.752 c -0.587,0.295 -1.261,0.356 -1.892,0.17 L 64.306865,63.081 c -0.752,-0.223 -0.841,-1.254 -0.136,-1.6" /><path
     style="fill:#ffae00"
     inkscape:connector-curvature="0"
     id="path50"
     d="m 141.43887,24.275 27.737,-12.756 c 0.55,-0.251 1.17,-0.305 1.753,-0.146 l 35.886,9.717 c 0.772,0.208 0.865,1.268 0.141,1.611 l -28.558,13.471 c -0.576,0.272 -1.231,0.322 -1.84,0.14 l -35.005,-10.43 c -0.761,-0.226 -0.837,-1.275 -0.114,-1.607" /><path
     style="fill:#ffae00"
     inkscape:connector-curvature="0"
     id="path52"
     d="m 104.30887,41.836 26.67,-12.622 c 0.577,-0.271 1.231,-0.321 1.842,-0.14 l 35.226,10.494 c 0.753,0.225 0.837,1.257 0.129,1.6 l -26.036,12.604 c -0.576,0.279 -1.234,0.332 -1.85,0.154 l -35.854,-10.488 c -0.761,-0.22 -0.843,-1.264 -0.127,-1.602" /><path
     style="fill:#072f7f"
     inkscape:connector-curvature="0"
     id="path54"
     d="m 58.724865,118.673 c -0.427,-0.136 -0.788,-0.431 -1,-0.825 -2.951,-5.488 -4.854,-11.394 -5.666,-17.571 -0.844,-6.433 -0.53,-13.226 0.931,-20.19 0.821,-3.907 1.99,-7.804 3.482,-11.625 0.323,-0.826 1.234,-1.262 2.084,-1.013 l 38.063,11.102 c 0.972,0.284 1.479,1.337 1.116,2.284 -1.489,3.899 -2.672,7.9 -3.526,11.939 -1.61,7.62 -1.958,15.079 -1.034,22.175 0.573,4.407 1.648,8.692 3.208,12.812 0.514,1.359 -0.741,2.716 -2.125,2.273 z" /><path
     style="fill:#072f7f"
     inkscape:connector-curvature="0"
     id="path56"
     d="m 106.28987,133.871 c -0.417,-0.128 -0.773,-0.412 -0.991,-0.789 -3.349,-5.84 -5.487005,-12.168 -6.360005,-18.826 -0.846,-6.432 -0.532,-13.226 0.931,-20.19 0.842005,-4.01 2.047005,-8.006 3.595005,-11.915 0.324,-0.821 1.229,-1.252 2.078,-1.007 l 42.896,12.368 c 1.094,0.316 1.591,1.584 0.99,2.552 -2.02,3.253 -4.629,8.492 -5.721,15.105 -1.289,7.818 -0.594,20.432 4.821,32.893 0.583,1.342 -0.703,2.746 -2.1,2.311 z" /><path
     style="fill:#072f7f"
     inkscape:connector-curvature="0"
     id="path58"
     d="m 20.151865,105.938 -0.099,-0.025 c -0.064,-0.016 -0.127,-0.032 -0.193,-0.053 -0.741,-0.218 -1.497,-0.465 -2.25,-0.734 l -0.816,-0.262 c -0.227,-0.072 -0.451,-0.171 -0.668,-0.29 l -0.075,-0.042 -0.077,-0.032 C 6.3768653,100.555 1.3608653,93.571 0.18486532,82.524 c -0.956,-8.987 1.87199998,-19.425 6.72099998,-24.815 1.377,-1.533 3.5819997,-3.36 6.2559997,-3.36 0.43,0 0.866,0.048 1.298,0.143 l 0.126,0.025 0.13,0.005 c 0.069,0.003 0.13,0.011 0.186,0.027 l 34.747,10.287 c 0.966,0.287 1.471,1.334 1.114,2.277 -1.446,3.82 -2.595,7.737 -3.429,11.684 -1.61,7.617 -1.958,15.078 -1.034,22.175 0.519,3.992 1.453,7.891 2.786,11.656 0.474,1.342 -0.821,2.636 -2.171,2.187 z" /><path
     style="fill:#e6001f"
     inkscape:connector-curvature="0"
     id="path60"
     d="m 198.78687,235.009 c -0.841,0.472 -1.909,0.167 -2.362,-0.682 -3.982,-7.462 -5.186,-18.373 -3.477,-31.82 0.297,-2.326 0.731,-4.662 1.292,-6.956 l 17.337,1.682 c 1.367,0.133 2.688,-0.54 3.382,-1.727 l 11.231,-19.172 c -0.446,2.116 -0.826,4.356 -1.117,6.64 -1.739,13.625 -0.583,24.638 3.532,33.538 0.373,0.807 0.04,1.764 -0.733,2.196 z" /><path
     style="fill:#c0c0c0"
     inkscape:connector-curvature="0"
     id="path62"
     d="m 246.72087,142.584 11.458,3.158 c 1.217,0.337 1.377,1.997 0.249,2.559 l -19.713,9.802 c -0.766,0.383 -1.559,-0.468 -1.126,-1.207 l 8.161,-13.917 c 0.196,-0.337 0.595,-0.497 0.971,-0.395" /><path
     style="fill:#c0c0c0"
     inkscape:connector-curvature="0"
     id="path64"
     d="m 109.59787,187.069 0.307,-0.154 54.33,5.564 c 1.289,0.13 1.604,1.865 0.445,2.44 l -9.462,4.705 c -0.582,0.289 -1.249,0.35 -1.871,0.167 z" /><path
     style="fill:#c0c0c0"
     inkscape:connector-curvature="0"
     id="path66"
     d="m 102.03287,186.254 1.25,-0.63 c 0.412,-0.207 0.299,-0.822 -0.159,-0.869 l -10.167005,-1.042 8.739005,2.573 c 0.112,0.033 0.232,0.021 0.337,-0.032" /><path
     style="fill:#072f7f"
     inkscape:connector-curvature="0"
     id="path68"
     d="m 311.81187,156.203 c -2.259,-2.176 -3.388,-5.021 -3.388,-8.535 V 72.687 c 0,-0.6 0.485,-1.085 1.083,-1.085 h 63.232 c 1.497,0 2.711,1.215 2.711,2.711 V 85.58 c 0,0.6 -0.484,1.085 -1.084,1.085 h -48.622 v 20.333 h 43.23 c 1.498,0 2.711,1.215 2.711,2.71 v 11.269 c 0,0.598 -0.487,1.084 -1.087,1.084 h -44.854 v 22.343 h 46.995 c 1.497,0 2.711,1.214 2.711,2.711 v 11.268 c 0,0.598 -0.484,1.083 -1.084,1.083 h -53.769 c -3.597,-0.001 -6.527,-1.086 -8.785,-3.263" /><path
     style="fill:#072f7f"
     inkscape:connector-curvature="0"
     id="path70"
     d="m 387.48287,152.688 c -4.563,-4.52 -6.842,-10.461 -6.842,-17.822 v -14.31 c 0,-5.103 1.087,-9.603 3.264,-13.494 2.176,-3.893 5.229,-6.905 9.162,-9.039 3.933,-2.134 8.491,-3.2 13.681,-3.2 h 6.905 c 2.427,0 4.896,0.524 7.406,1.568 2.509,1.048 4.602,2.448 6.274,4.207 V 71.682 c 0,-0.6 0.486,-1.084 1.086,-1.084 h 13.817 c 1.196,0 2.168,0.97 2.168,2.169 v 85.615 c 0,0.598 -0.484,1.083 -1.084,1.083 h -13.647 c -0.599,0 -1.082,-0.485 -1.082,-1.083 v -8.204 c -1.678,2.761 -3.937,5.001 -6.778,6.716 -2.848,1.714 -5.819,2.571 -8.914,2.571 h -7.404 c -7.45,0 -13.454,-2.26 -18.012,-6.777 m 27.299,-7.907 c 3.431,0 6.297,-1.232 8.599,-3.703 2.301,-2.469 3.618,-5.754 3.953,-9.854 v -10.92 c -0.586,-3.264 -1.862,-5.879 -3.828,-7.846 -1.965,-1.965 -4.29,-2.95 -6.967,-2.95 h -7.657 c -3.347,0 -6.045,1.13 -8.094,3.391 -2.052,2.259 -3.076,5.229 -3.076,8.912 v 11.798 c 0,3.347 0.92,6.047 2.76,8.097 1.841,2.051 4.227,3.075 7.157,3.075 z" /><path
     style="fill:#072f7f"
     inkscape:connector-curvature="0"
     id="path72"
     d="m 458.13087,152.75 c -4.018,-4.475 -6.024,-10.355 -6.024,-17.635 V 96.91 c 0,-0.598 0.485,-1.083 1.084,-1.083 h 14.902 c 0.6,0 1.084,0.486 1.084,1.083 v 38.455 c 0,2.762 0.689,5.002 2.071,6.716 1.38,1.717 3.2,2.572 5.46,2.572 h 7.28 c 2.762,0 5.271,-1.149 7.531,-3.449 2.259,-2.303 3.85,-5.336 4.77,-9.102 V 96.91 c 0,-0.598 0.485,-1.083 1.085,-1.083 h 14.901 c 0.6,0 1.084,0.486 1.084,1.083 v 61.472 c 0,0.6 -0.484,1.085 -1.084,1.085 h -13.647 c -0.598,0 -1.084,-0.485 -1.084,-1.085 v -7.955 c -1.925,2.681 -4.288,4.854 -7.09,6.528 -2.806,1.673 -5.506,2.512 -8.098,2.512 h -8.284 c -6.611,0 -11.924,-2.238 -15.941,-6.717" /><path
     style="fill:#072f7f"
     inkscape:connector-curvature="0"
     id="path74"
     d="m 577.91687,139.008 h -32.886 l -7.519,19.76 c -0.159,0.42 -0.563,0.699 -1.014,0.699 h -15.736 c -0.763,0 -1.289,-0.77 -1.01,-1.481 l 33.543,-85.694 c 0.161,-0.416 0.563,-0.689 1.01,-0.689 h 7.042 c 5.438,0 9.119,2.51 11.046,7.531 l 30.68,78.855 c 0.275,0.712 -0.248,1.479 -1.012,1.479 h -15.736 c -0.452,0 -0.856,-0.28 -1.017,-0.704 z m -28.243,-14.561 h 23.599 l -11.674,-31.632 h -0.125 z" /><path
     style="fill:#072f7f"
     inkscape:connector-curvature="0"
     id="path76"
     d="m 610.78587,88.108 c -1.969,-1.882 -2.951,-4.372 -2.951,-7.469 0,-3.094 0.982,-5.585 2.951,-7.467 1.964,-1.884 4.582,-2.825 7.844,-2.825 3.265,0 5.878,0.941 7.846,2.825 1.964,1.882 2.95,4.374 2.95,7.467 0,3.098 -0.986,5.587 -2.95,7.469 -1.968,1.884 -4.581,2.825 -7.846,2.825 -3.262,-0.001 -5.88,-0.941 -7.844,-2.825 m 0.393,8.724 h 13.275 c 1.498,0 2.711,1.212 2.711,2.709 v 58.841 c 0,0.598 -0.485,1.083 -1.083,1.083 h -14.903 c -0.598,0 -1.085,-0.485 -1.085,-1.083 V 97.916 c 0,-0.598 0.487,-1.084 1.085,-1.084" /><path
     style="fill:#072f7f"
     inkscape:connector-curvature="0"
     id="path78"
     d="m 641.66887,152.688 c -4.563,-4.52 -6.842,-10.461 -6.842,-17.822 v -14.31 c 0,-5.103 1.087,-9.603 3.264,-13.494 2.176,-3.893 5.229,-6.905 9.162,-9.039 3.933,-2.134 8.492,-3.2 13.682,-3.2 h 6.904 c 2.427,0 4.896,0.524 7.406,1.568 2.509,1.048 4.602,2.448 6.275,4.207 V 71.682 c 0,-0.6 0.485,-1.084 1.085,-1.084 h 13.274 c 1.497,0 2.711,1.214 2.711,2.711 v 85.073 c 0,0.598 -0.484,1.083 -1.084,1.083 h -13.647 c -0.599,0 -1.082,-0.485 -1.082,-1.083 v -8.204 c -1.677,2.761 -3.937,5.001 -6.778,6.716 -2.848,1.714 -5.819,2.571 -8.914,2.571 h -7.404 c -7.45,0 -13.454,-2.26 -18.012,-6.777 m 27.299,-7.907 c 3.431,0 6.297,-1.232 8.599,-3.703 2.301,-2.469 3.619,-5.754 3.954,-9.854 v -10.92 c -0.587,-3.264 -1.863,-5.879 -3.829,-7.846 -1.965,-1.965 -4.29,-2.95 -6.967,-2.95 h -7.656 c -3.348,0 -6.046,1.13 -8.095,3.391 -2.052,2.259 -3.076,5.229 -3.076,8.912 v 11.798 c 0,3.347 0.92,6.047 2.761,8.097 1.84,2.051 4.226,3.075 7.156,3.075 z" /><g
     transform="translate(-291.54013,-271.069)"
     id="g108">
	<path
   style="fill:#072f7f"
   inkscape:connector-curvature="0"
   id="path80"
   d="m 811.988,445.973 h 2.36 v 19.029 h -2.36 z" />
	<path
   style="fill:#072f7f"
   inkscape:connector-curvature="0"
   id="path82"
   d="m 819.629,458.945 c 0.055,3.188 2.091,4.502 4.45,4.502 1.688,0 2.707,-0.295 3.592,-0.67 l 0.4,1.689 c -0.83,0.375 -2.251,0.803 -4.313,0.803 -3.994,0 -6.38,-2.625 -6.38,-6.539 0,-3.913 2.306,-6.996 6.084,-6.996 4.234,0 5.359,3.726 5.359,6.111 0,0.482 -0.051,0.857 -0.08,1.1 z m 6.916,-1.689 c 0.026,-1.501 -0.617,-3.832 -3.271,-3.832 -2.385,0 -3.431,2.197 -3.618,3.832 z" />
	<path
   style="fill:#072f7f"
   inkscape:connector-curvature="0"
   id="path84"
   d="m 838.93,465.002 -0.188,-1.635 h -0.08 c -0.725,1.018 -2.118,1.93 -3.967,1.93 -2.627,0 -3.968,-1.85 -3.968,-3.726 0,-3.136 2.788,-4.851 7.8,-4.823 v -0.27 c 0,-1.071 -0.295,-3.001 -2.948,-3.001 -1.206,0 -2.466,0.375 -3.378,0.965 l -0.535,-1.555 c 1.072,-0.698 2.627,-1.153 4.261,-1.153 3.968,0 4.933,2.708 4.933,5.309 v 4.851 c 0,1.126 0.054,2.224 0.214,3.108 z m -0.348,-6.621 c -2.573,-0.053 -5.496,0.402 -5.496,2.923 0,1.528 1.02,2.251 2.226,2.251 1.689,0 2.761,-1.072 3.136,-2.171 0.08,-0.242 0.135,-0.51 0.135,-0.75 v -2.253 z" />
	<path
   style="fill:#072f7f"
   inkscape:connector-curvature="0"
   id="path86"
   d="m 844.669,456.077 c 0,-1.527 -0.027,-2.842 -0.107,-4.048 h 2.064 l 0.08,2.546 h 0.106 c 0.59,-1.741 2.01,-2.841 3.593,-2.841 0.268,0 0.455,0.027 0.67,0.08 v 2.226 c -0.242,-0.053 -0.482,-0.08 -0.805,-0.08 -1.663,0 -2.841,1.26 -3.163,3.028 -0.053,0.322 -0.106,0.697 -0.106,1.1 v 6.914 h -2.332 z" />
	<path
   style="fill:#072f7f"
   inkscape:connector-curvature="0"
   id="path88"
   d="m 853.435,455.54 c 0,-1.34 -0.027,-2.438 -0.107,-3.511 h 2.091 l 0.135,2.146 h 0.053 c 0.643,-1.233 2.144,-2.44 4.288,-2.44 1.796,0 4.584,1.072 4.584,5.521 v 7.746 h -2.358 v -7.479 c 0,-2.091 -0.777,-3.831 -3.001,-3.831 -1.556,0 -2.761,1.098 -3.165,2.411 -0.105,0.295 -0.16,0.697 -0.16,1.1 v 7.799 h -2.358 v -9.462 z" />
	<path
   style="fill:#072f7f"
   inkscape:connector-curvature="0"
   id="path90"
   d="m 870.939,448.384 c 0.027,0.805 -0.561,1.448 -1.5,1.448 -0.831,0 -1.421,-0.644 -1.421,-1.448 0,-0.83 0.615,-1.473 1.475,-1.473 0.886,0 1.446,0.643 1.446,1.473 z m -2.626,16.618 v -12.973 h 2.358 v 12.973 z" />
	<path
   style="fill:#072f7f"
   inkscape:connector-curvature="0"
   id="path92"
   d="m 874.587,455.54 c 0,-1.34 -0.027,-2.438 -0.107,-3.511 h 2.091 l 0.134,2.146 h 0.054 c 0.643,-1.233 2.143,-2.44 4.288,-2.44 1.796,0 4.583,1.072 4.583,5.521 v 7.746 h -2.357 v -7.479 c 0,-2.091 -0.778,-3.831 -3.002,-3.831 -1.555,0 -2.76,1.098 -3.164,2.411 -0.106,0.295 -0.16,0.697 -0.16,1.1 v 7.799 h -2.358 v -9.462 z" />
	<path
   style="fill:#072f7f"
   inkscape:connector-curvature="0"
   id="path94"
   d="m 900.643,452.029 c -0.055,0.938 -0.107,1.983 -0.107,3.565 v 7.532 c 0,2.974 -0.59,4.796 -1.85,5.923 -1.259,1.179 -3.083,1.554 -4.719,1.554 -1.553,0 -3.269,-0.375 -4.313,-1.072 l 0.59,-1.796 c 0.857,0.537 2.198,1.02 3.806,1.02 2.413,0 4.182,-1.26 4.182,-4.53 v -1.447 h -0.054 c -0.725,1.207 -2.117,2.172 -4.128,2.172 -3.218,0 -5.521,-2.734 -5.521,-6.326 0,-4.396 2.868,-6.889 5.844,-6.889 2.251,0 3.483,1.18 4.047,2.253 h 0.054 l 0.106,-1.958 h 2.063 z m -2.44,5.119 c 0,-0.4 -0.026,-0.75 -0.135,-1.071 -0.429,-1.367 -1.581,-2.492 -3.296,-2.492 -2.251,0 -3.859,1.902 -3.859,4.903 0,2.548 1.287,4.664 3.833,4.664 1.446,0 2.761,-0.911 3.27,-2.411 0.134,-0.402 0.188,-0.857 0.188,-1.26 v -2.333 z" />
	<path
   style="fill:#072f7f"
   inkscape:connector-curvature="0"
   id="path96"
   d="m 910.375,465.002 v -11.177 h -1.822 v -1.796 h 1.822 v -0.615 c 0,-1.823 0.403,-3.485 1.501,-4.53 0.885,-0.858 2.063,-1.206 3.163,-1.206 0.83,0 1.555,0.188 2.011,0.375 l -0.321,1.823 c -0.35,-0.162 -0.832,-0.295 -1.502,-0.295 -2.011,0 -2.519,1.769 -2.519,3.751 v 0.697 h 3.136 v 1.796 h -3.136 v 11.177 z" />
	<path
   style="fill:#072f7f"
   inkscape:connector-curvature="0"
   id="path98"
   d="m 929.031,458.408 c 0,4.799 -3.323,6.889 -6.459,6.889 -3.511,0 -6.219,-2.572 -6.219,-6.674 0,-4.343 2.841,-6.889 6.434,-6.889 3.724,0 6.244,2.708 6.244,6.674 z m -10.292,0.135 c 0,2.841 1.635,4.984 3.94,4.984 2.251,0 3.94,-2.116 3.94,-5.039 0,-2.197 -1.1,-4.983 -3.886,-4.983 -2.789,0 -3.994,2.572 -3.994,5.038 z" />
	<path
   style="fill:#072f7f"
   inkscape:connector-curvature="0"
   id="path100"
   d="m 932.01,456.077 c 0,-1.527 -0.027,-2.842 -0.107,-4.048 h 2.063 l 0.08,2.546 h 0.109 c 0.59,-1.741 2.01,-2.841 3.591,-2.841 0.268,0 0.455,0.027 0.67,0.08 v 2.226 c -0.24,-0.053 -0.482,-0.08 -0.805,-0.08 -1.661,0 -2.841,1.26 -3.161,3.028 -0.055,0.322 -0.109,0.697 -0.109,1.1 v 6.914 h -2.331 z" />
	<path
   style="fill:#072f7f"
   inkscape:connector-curvature="0"
   id="path102"
   d="m 953.643,465.002 -0.188,-1.635 h -0.081 c -0.723,1.018 -2.115,1.93 -3.966,1.93 -2.626,0 -3.966,-1.85 -3.966,-3.726 0,-3.136 2.786,-4.851 7.799,-4.823 v -0.27 c 0,-1.071 -0.295,-3.001 -2.948,-3.001 -1.205,0 -2.466,0.375 -3.378,0.965 l -0.535,-1.555 c 1.072,-0.698 2.626,-1.153 4.262,-1.153 3.968,0 4.933,2.708 4.933,5.309 v 4.851 c 0,1.126 0.053,2.224 0.213,3.108 z m -0.35,-6.621 c -2.572,-0.053 -5.493,0.402 -5.493,2.923 0,1.528 1.018,2.251 2.223,2.251 1.69,0 2.761,-1.072 3.137,-2.171 0.081,-0.242 0.134,-0.51 0.134,-0.75 v -2.253 z" />
	<path
   style="fill:#072f7f"
   inkscape:connector-curvature="0"
   id="path104"
   d="m 959.381,445.973 h 2.357 v 19.029 h -2.357 z" />
	<path
   style="fill:#072f7f"
   inkscape:connector-curvature="0"
   id="path106"
   d="m 965.573,445.973 h 2.358 v 19.029 h -2.358 z" />
</g></g>
</svg>